<?xml version="1.0" encoding="iso-8859-1"?>
<!-- Generator: Adobe Illustrator 19.0.0, SVG Export Plug-In . SVG Version: 6.00 Build 0)  -->
<svg version="1.1" id="Layer_1" xmlns="http://www.w3.org/2000/svg" xmlns:xlink="http://www.w3.org/1999/xlink" x="0px" y="0px"
	 viewBox="0 0 489.3 489.3" style="enable-background:new 0 0 489.3 489.3;" xml:space="preserve">
<g>
	<g>
		<path d="M409.08,328.691c-19.372,0-37.161,6.903-51.039,18.377l-32.414-32.414c16.285-18.774,26.153-43.258,26.153-70.003
			c0-26.746-9.868-51.23-26.154-70.004l32.415-32.414c13.878,11.474,31.667,18.377,51.039,18.377c44.234,0,80.22-35.987,80.22-80.22
			c0-44.234-35.987-80.221-80.22-80.221c-44.234,0-80.22,35.988-80.22,80.221c0,19.372,6.903,37.161,18.376,51.039l-32.415,32.414
			c-18.774-16.285-43.257-26.153-70.003-26.153c-26.745,0-51.229,9.868-70.003,26.153l-32.601-32.601
			c11.383-13.851,18.227-31.567,18.227-50.853c0-44.234-35.987-80.221-80.221-80.221C35.987,0.168,0,36.155,0,80.389
			s35.987,80.22,80.221,80.22c19.457,0,37.315-6.968,51.219-18.533l32.571,32.57c-16.285,18.774-26.153,43.258-26.153,70.003
			s9.868,51.229,26.153,70.003l-32.57,32.571c-13.905-11.565-31.762-18.533-51.22-18.533C35.987,328.691,0,364.678,0,408.912
			s35.987,80.22,80.221,80.22s80.221-35.986,80.221-80.22c0-19.286-6.844-37.001-18.227-50.853l32.6-32.601
			c18.774,16.285,43.258,26.153,70.003,26.153c26.746,0,51.23-9.868,70.003-26.153l32.414,32.414
			c-11.474,13.879-18.376,31.668-18.376,51.039c0,44.234,35.986,80.22,80.22,80.22s80.22-35.986,80.22-80.22
			C489.3,364.678,453.314,328.691,409.08,328.691z M409.081,145.331c-13.791-0.001-26.581-4.335-37.109-11.694l0.083-14.166
			c0-12.916,6.758-24.862,17.721-31.579c5.564,3.613,12.191,5.721,19.305,5.721c7.114,0,13.741-2.108,19.305-5.721
			c10.963,6.717,17.72,18.667,17.72,31.653l0.135,14.056C435.704,140.982,422.894,145.331,409.081,145.331z M388.805,58.056
			c0-11.18,9.095-20.275,20.275-20.275s20.275,9.095,20.275,20.275c0,11.18-9.095,20.276-20.275,20.276
			S388.805,69.236,388.805,58.056z M344.14,80.389c0-35.808,29.132-64.941,64.94-64.941c35.809,0,64.94,29.133,64.94,64.941
			c0,14.379-4.705,27.676-12.646,38.448c-0.204-16.828-8.502-32.441-22.083-42.063c3.383-5.441,5.344-11.853,5.344-18.718
			c0-19.605-15.95-35.555-35.555-35.555c-19.605,0-35.555,15.95-35.555,35.555c0,6.865,1.961,13.277,5.344,18.718
			c-13.593,9.63-21.893,25.255-22.084,42.062C348.844,108.064,344.14,94.768,344.14,80.389z M80.221,145.33
			c-13.791,0-26.581-4.334-37.108-11.693l0.083-14.166c0-12.916,6.758-24.862,17.721-31.579c5.564,3.613,12.191,5.721,19.304,5.721
			c7.114,0,13.741-2.108,19.305-5.721c10.963,6.717,17.72,18.666,17.72,31.653l0.136,14.055
			C106.845,140.982,94.035,145.33,80.221,145.33z M59.945,58.056c0-11.18,9.096-20.275,20.276-20.275s20.276,9.095,20.276,20.275
			c0,11.18-9.096,20.276-20.276,20.276S59.945,69.236,59.945,58.056z M110.432,76.774c3.383-5.44,5.344-11.853,5.344-18.718
			c0-19.605-15.95-35.555-35.556-35.555c-19.605,0-35.556,15.95-35.556,35.555c0,6.865,1.961,13.277,5.344,18.718
			c-13.593,9.63-21.893,25.256-22.084,42.062C19.985,108.065,15.28,94.768,15.28,80.389c0-35.809,29.132-64.941,64.941-64.941
			s64.941,29.133,64.941,64.941c0,14.379-4.705,27.676-12.647,38.449C132.311,102.009,124.014,86.396,110.432,76.774z
			 M80.221,473.853c-13.791-0.001-26.581-4.334-37.108-11.693l0.083-14.166c0-12.916,6.758-24.862,17.721-31.579
			c5.564,3.613,12.191,5.721,19.304,5.721c7.114,0,13.741-2.108,19.305-5.721c10.963,6.717,17.72,18.666,17.72,31.653l0.136,14.055
			C106.845,469.505,94.035,473.853,80.221,473.853z M59.945,386.579c0-11.18,9.096-20.275,20.276-20.275s20.276,9.095,20.276,20.275
			s-9.096,20.276-20.276,20.276S59.945,397.759,59.945,386.579z M145.16,408.911c0.002,14.38-4.704,27.678-12.645,38.45
			c-0.204-16.829-8.501-32.442-22.083-42.064c3.383-5.44,5.344-11.853,5.344-18.718c0-19.605-15.95-35.555-35.556-35.555
			c-19.605,0-35.556,15.95-35.556,35.555c0,6.865,1.961,13.277,5.344,18.718c-13.593,9.63-21.893,25.256-22.084,42.062
			c-7.941-10.772-12.646-24.068-12.646-38.448c0-35.809,29.132-64.941,64.941-64.941C116.028,343.97,145.16,373.103,145.16,408.911z
			 M298.298,319.072c-15.063,10.855-33.537,17.26-53.481,17.26c-19.942,0-38.416-6.405-53.479-17.26v-20.94
			c0-19.265,10.391-37.053,27.147-46.554c7.457,5.254,16.538,8.353,26.333,8.353c9.796,0,18.877-3.099,26.334-8.353
			c16.755,9.501,27.146,27.29,27.146,46.554V319.072z M214.258,214.09c0-16.852,13.709-30.561,30.56-30.561
			c16.852,0,30.561,13.709,30.561,30.561c0,16.851-13.709,30.561-30.561,30.561C227.968,244.651,214.258,230.941,214.258,214.09z
			 M313.579,305.221v-7.09c0-23.36-11.88-45.036-31.301-57.668c5.271-7.465,8.381-16.56,8.381-26.373
			c0-25.277-20.564-45.841-45.841-45.841c-25.276,0-45.84,20.564-45.84,45.841c0,9.813,3.11,18.908,8.381,26.373
			c-19.422,12.633-31.302,34.307-31.302,57.668v7.09c-14.256-16.165-22.921-37.373-22.921-60.57
			c0.001-50.554,41.13-91.681,91.683-91.681c50.553,0,91.681,41.128,91.681,91.681C336.5,267.848,327.836,289.057,313.579,305.221z
			 M409.081,473.853c-13.791-0.001-26.581-4.334-37.109-11.693l0.083-14.166c0-12.916,6.758-24.862,17.721-31.579
			c5.564,3.613,12.191,5.721,19.305,5.721c7.114,0,13.741-2.108,19.305-5.721c10.963,6.717,17.72,18.667,17.72,31.653l0.135,14.056
			C435.704,469.505,422.894,473.853,409.081,473.853z M388.805,386.579c0-11.18,9.095-20.275,20.275-20.275
			s20.275,9.095,20.275,20.275c0,11.18-9.095,20.276-20.275,20.276S388.805,397.759,388.805,386.579z M461.374,447.36
			c-0.204-16.828-8.502-32.441-22.083-42.063c3.383-5.441,5.344-11.853,5.344-18.718c0-19.605-15.95-35.555-35.555-35.555
			c-19.605,0-35.555,15.95-35.555,35.555c0,6.865,1.961,13.277,5.344,18.718c-13.593,9.63-21.893,25.255-22.084,42.062
			c-7.941-10.772-12.645-24.068-12.645-38.447c0-35.809,29.132-64.941,64.94-64.941c35.808,0,64.94,29.133,64.94,64.941
			C474.021,423.291,469.315,436.588,461.374,447.36z"/>
	</g>
</g>
<g>
</g>
<g>
</g>
<g>
</g>
<g>
</g>
<g>
</g>
<g>
</g>
<g>
</g>
<g>
</g>
<g>
</g>
<g>
</g>
<g>
</g>
<g>
</g>
<g>
</g>
<g>
</g>
<g>
</g>
</svg>
