<?xml version="1.0" encoding="utf-8"?>
<svg xmlns="http://www.w3.org/2000/svg" style="margin: auto; background: none; display: block; shape-rendering: auto;" width="280" height="250" preserveAspectRatio="xMidYMid">
<style type="text/css">
  text {
    text-anchor: middle; font-size: 69px; opacity: 0;
  }
</style>
<g style="transform-origin:140px 125px;transform:scale(1)">
<g transform="translate(140,125)">
  <g transform="translate(0,0)"><g className="path" style="transform: matrix(1, 0, 0, 1, 0, 0); transform-origin: -71.9px -4.23791px; animation: 1.0989s linear -0.621664s infinite normal forwards running bounce-1751a5a4-bba9-4c61-85f0-850173bc693f;"><path d="M21.25-0.07L21.25-0.07L17.32-0.14L17.32-0.14Q16.49-0.14 15.66-0.14L15.66-0.14L3.11 0.48L3.11 0.48Q2.07 0.48 2.07-0.21L2.07-0.21L2.07-0.21Q2.07-0.41 2.28-1.17L2.28-1.17L2.28-1.17Q2.97-2.76 3.28-11.25L3.28-11.25L3.28-11.25Q3.59-19.73 3.59-26.74L3.59-26.74L3.59-26.74Q3.59-33.74 3.31-38.09L3.31-38.09L3.31-38.09Q2.90-44.64 1.93-45.95L1.93-45.95L1.93-45.95Q1.17-46.92 1.17-47.20L1.17-47.20L1.17-47.20Q1.17-48.30 4.90-49.13L4.90-49.13L4.90-49.13Q8.63-49.96 10.25-49.96L10.25-49.96L10.25-49.96Q11.87-49.96 12.28-49.78L12.28-49.78L12.28-49.78Q12.70-49.61 12.70-49.06L12.70-49.06L12.70-49.06Q12.70-48.51 12.42-45.54L12.42-45.54L12.42-45.54Q11.73-36.78 11.73-25.15L11.73-25.15L11.73-25.15Q11.73-13.52 12.28-6.56L12.28-6.56L12.28-6.56Q12.28-5.80 13.59-5.24L13.59-5.24L13.59-5.24Q14.90-4.69 16.84-4.69L16.84-4.69L16.84-4.69Q23.60-4.69 23.60-15.11L23.60-15.11L23.60-15.11Q23.60-18.01 23.29-18.70L23.29-18.70L23.29-18.70Q22.98-19.39 22.98-19.60L22.98-19.60L22.98-19.60Q22.98-20.29 23.94-20.29L23.94-20.29L23.94-20.29Q24.70-20.29 25.98-19.53L25.98-19.53L25.98-19.53Q27.26-18.77 28.08-17.63L28.08-17.63L28.08-17.63Q28.91-16.49 29.60-14.04L29.60-14.04L29.60-14.04Q30.29-11.59 30.29-8.28L30.29-8.28L30.29-8.28Q30.29-0.07 28.29-0.07L28.29-0.07L28.29-0.07Q24.77-0.07 21.25-0.07" fill="#000000" stroke="none" stroke-width="none" transform="translate(-87.6299991607666,20.50208851405553)" style="fill: rgb(0, 0, 0);"></path></g><g className="path" style="transform: matrix(1, 0, 0, 1, 0, 0); transform-origin: -42.85px 5.35709px; animation: 1.0989s linear -0.518053s infinite normal forwards running bounce-1751a5a4-bba9-4c61-85f0-850173bc693f;"><path d="M55.89-20.70L55.89-20.70L55.75-11.87L55.75-11.87Q55.75-2.69 57.75-0.83L57.75-0.83L57.75-0.83Q58.03-0.55 58.03-0.21L58.03-0.21L58.03-0.21Q58.03 0.83 53.58 0.83L53.58 0.83L53.58 0.83Q49.13 0.83 48.85-1.79L48.85-1.79L48.85-1.79Q48.78-2.42 48.78-4.35L48.78-4.35L49.06-15.39L49.06-15.39Q49.06-15.87 48.51-15.87L48.51-15.87L48.51-15.87Q45.20-15.87 42.30-14.01L42.30-14.01L42.30-14.01Q39.40-12.14 39.40-9.25L39.40-9.25L39.40-9.25Q39.40-7.73 40.23-6.69L40.23-6.69L40.23-6.69Q41.05-5.66 42.26-5.66L42.26-5.66L42.26-5.66Q43.47-5.66 44.26-6.14L44.26-6.14L44.26-6.14Q45.06-6.62 45.20-6.69L45.20-6.69L45.20-6.69Q46.37-6.56 46.37-4.24L46.37-4.24L46.37-4.24Q46.37-1.93 44.23-0.52L44.23-0.52L44.23-0.52Q42.09 0.90 39.74 0.90L39.74 0.90L39.74 0.90Q37.40 0.90 35.71 0.07L35.71 0.07L35.71 0.07Q34.02-0.76 33.26-1.79L33.26-1.79L33.26-1.79Q32.50-2.83 32.02-4.14L32.02-4.14L32.02-4.14Q31.53-5.73 31.53-6.90L31.53-6.90L31.53-6.90Q31.53-11.73 34.57-14.63L34.57-14.63L34.57-14.63Q37.61-17.53 42.37-18.77L42.37-18.77L42.37-18.77Q48.65-20.01 48.92-21.05L48.92-21.05L48.92-21.05Q49.13-21.80 49.13-23.60L49.13-23.60L49.13-23.60Q49.13-27.26 45.40-27.26L45.40-27.26L45.40-27.26Q43.81-27.26 42.57-26.25L42.57-26.25L42.57-26.25Q41.33-25.25 41.33-23.74L41.33-23.74L41.75-22.08L41.75-22.08Q41.61-20.91 39.26-20.70L39.26-20.70L38.50-20.63L38.50-20.63Q36.43-20.63 35.22-21.67L35.22-21.67L35.22-21.67Q34.02-22.70 34.02-24.43L34.02-24.43L34.02-24.43Q34.02-25.53 34.74-26.88L34.74-26.88L34.74-26.88Q35.47-28.22 36.57-29.05L36.57-29.05L36.57-29.05Q37.67-29.88 39.99-30.53L39.99-30.53L39.99-30.53Q42.30-31.19 44.44-31.19L44.44-31.19L44.44-31.19Q46.58-31.19 47.75-31.05L47.75-31.05L47.75-31.05Q48.92-30.91 50.96-30.39L50.96-30.39L50.96-30.39Q52.99-29.88 54.34-28.43L54.34-28.43L54.34-28.43Q55.68-26.98 55.79-25.36L55.79-25.36L55.79-25.36Q55.89-23.74 55.89-20.70" fill="#000000" stroke="none" stroke-width="none" transform="translate(-87.6299991607666,20.50208851405553)" style="fill: rgb(165, 165, 165);"></path></g><g className="path" style="transform: matrix(1, 0, 0, 1, 0, 0); transform-origin: -15.665px 15.3271px; animation: 1.0989s linear -0.414443s infinite normal forwards running bounce-1751a5a4-bba9-4c61-85f0-850173bc693f;"><path d="M60.79-10.56L60.79-10.56L60.79-10.56Q60.93-17.53 60.93-22.01L60.93-22.01L60.93-22.01Q60.93-26.50 60.31-30.57L60.31-30.57L60.31-30.57Q60.31-31.26 61.69-31.26L61.69-31.26L61.69-31.26Q63.07-31.26 64.07-30.91L64.07-30.91L64.07-30.91Q65.07-30.57 65.48-30.15L65.48-30.15L65.48-30.15Q66.59-29.05 66.76-29.05L66.76-29.05L66.76-29.05Q66.93-29.05 67.83-29.67L67.83-29.67L67.83-29.67Q70.52-31.40 73.80-31.40L73.80-31.40L73.80-31.40Q77.07-31.40 79.52-29.74L79.52-29.74L79.52-29.74Q81.97-28.08 83.01-25.39L83.01-25.39L83.01-25.39Q84.87-20.77 84.87-15.59L84.87-15.59L84.87-15.59Q84.87-10.49 83.01-5.38L83.01-5.38L83.01-5.38Q81.97-2.62 79.97-0.86L79.97-0.86L79.97-0.86Q77.97 0.90 75.28 0.90L75.28 0.90L75.28 0.90Q69.97 0.90 69.97-5.24L69.97-5.24L69.97-5.24Q69.97-6.90 70.66-6.90L70.66-6.90L70.66-6.90Q70.79-6.90 71.45-6.59L71.45-6.59L71.45-6.59Q72.11-6.28 72.73-6.28L72.73-6.28L72.73-6.28Q77.63-6.28 77.63-16.66L77.63-16.66L77.63-16.66Q77.63-27.05 72.38-27.05L72.38-27.05L72.38-27.05Q70.93-27.05 69.93-26.39L69.93-26.39L69.93-26.39Q68.93-25.74 68.66-25.12L68.66-25.12L68.38-24.43L68.38-24.43Q67.41-18.22 67.41-0.48L67.41-0.48L67.41-0.48Q67.41 7.52 67.72 11.01L67.72 11.01L67.72 11.01Q68.03 14.49 68.03 15.18L68.03 15.18L68.03 15.18Q68.03 15.87 67.62 16.42L67.62 16.42L67.62 16.42Q66.24 18.22 63.89 19.63L63.89 19.63L63.89 19.63Q61.55 21.05 59.75 21.05L59.75 21.05L59.75 21.05Q59.06 21.05 59.06 20.15L59.06 20.15L59.06 20.15Q60.17 13.18 60.79-10.56" fill="#000000" stroke="none" stroke-width="none" transform="translate(-87.6299991607666,20.50208851405553)" style="fill: rgb(165, 165, 165);"></path></g><g className="path" style="transform: matrix(1, 0, 0, 1, 0, 0); transform-origin: 12.56px 5.35709px; animation: 1.0989s linear -0.310832s infinite normal forwards running bounce-1751a5a4-bba9-4c61-85f0-850173bc693f;"><path d="M111.30-20.70L111.30-20.70L111.16-11.87L111.16-11.87Q111.16-2.69 113.16-0.83L113.16-0.83L113.16-0.83Q113.44-0.55 113.44-0.21L113.44-0.21L113.44-0.21Q113.44 0.83 108.99 0.83L108.99 0.83L108.99 0.83Q104.54 0.83 104.26-1.79L104.26-1.79L104.26-1.79Q104.19-2.42 104.19-4.35L104.19-4.35L104.47-15.39L104.47-15.39Q104.47-15.87 103.91-15.87L103.91-15.87L103.91-15.87Q100.60-15.87 97.70-14.01L97.70-14.01L97.70-14.01Q94.81-12.14 94.81-9.25L94.81-9.25L94.81-9.25Q94.81-7.73 95.63-6.69L95.63-6.69L95.63-6.69Q96.46-5.66 97.67-5.66L97.67-5.66L97.67-5.66Q98.88-5.66 99.67-6.14L99.67-6.14L99.67-6.14Q100.46-6.62 100.60-6.69L100.60-6.69L100.60-6.69Q101.78-6.56 101.78-4.24L101.78-4.24L101.78-4.24Q101.78-1.93 99.64-0.52L99.64-0.52L99.64-0.52Q97.50 0.90 95.15 0.90L95.15 0.90L95.15 0.90Q92.81 0.90 91.11 0.07L91.11 0.07L91.11 0.07Q89.42-0.76 88.67-1.79L88.67-1.79L88.67-1.79Q87.91-2.83 87.42-4.14L87.42-4.14L87.42-4.14Q86.94-5.73 86.94-6.90L86.94-6.90L86.94-6.90Q86.94-11.73 89.98-14.63L89.98-14.63L89.98-14.63Q93.01-17.53 97.77-18.77L97.77-18.77L97.77-18.77Q104.05-20.01 104.33-21.05L104.33-21.05L104.33-21.05Q104.54-21.80 104.54-23.60L104.54-23.60L104.54-23.60Q104.54-27.26 100.81-27.26L100.81-27.26L100.81-27.26Q99.22-27.26 97.98-26.25L97.98-26.25L97.98-26.25Q96.74-25.25 96.74-23.74L96.74-23.74L97.15-22.08L97.15-22.08Q97.01-20.91 94.67-20.70L94.67-20.70L93.91-20.63L93.91-20.63Q91.84-20.63 90.63-21.67L90.63-21.67L90.63-21.67Q89.42-22.70 89.42-24.43L89.42-24.43L89.42-24.43Q89.42-25.53 90.15-26.88L90.15-26.88L90.15-26.88Q90.87-28.22 91.98-29.05L91.98-29.05L91.98-29.05Q93.08-29.88 95.39-30.53L95.39-30.53L95.39-30.53Q97.70-31.19 99.84-31.19L99.84-31.19L99.84-31.19Q101.98-31.19 103.16-31.05L103.16-31.05L103.16-31.05Q104.33-30.91 106.36-30.39L106.36-30.39L106.36-30.39Q108.40-29.88 109.74-28.43L109.74-28.43L109.74-28.43Q111.09-26.98 111.19-25.36L111.19-25.36L111.19-25.36Q111.30-23.74 111.30-20.70" fill="#000000" stroke="none" stroke-width="none" transform="translate(-87.6299991607666,20.50208851405553)" style="fill: rgb(0, 0, 0);"></path></g><g className="path" style="transform: matrix(1, 0, 0, 1, 0, 0); transform-origin: 38.575px 5.35709px; animation: 1.0989s linear -0.207221s infinite normal forwards running bounce-1751a5a4-bba9-4c61-85f0-850173bc693f;"><path d="M136.90-23.74L136.55-18.49L136.83-16.08L136.83-16.08Q136.83-14.77 134.34-14.77L134.34-14.77L134.34-14.77Q129.31-14.77 129.31-18.56L129.31-18.56L129.31-18.56Q129.31-19.46 129.79-21.05L129.79-21.05L129.79-21.05Q130.27-22.63 130.27-23.81L130.27-23.81L130.27-23.81Q130.27-24.98 129.58-25.84L129.58-25.84L129.58-25.84Q128.89-26.70 127.58-26.70L127.58-26.70L127.58-26.70Q126.27-26.70 125.34-25.77L125.34-25.77L125.34-25.77Q124.41-24.84 124.20-23.87L124.20-23.87L123.92-22.91L123.92-22.91Q123.51-20.77 123.51-15.77L123.51-15.77L123.51-15.77Q123.51-10.76 123.65-7.90L123.65-7.90L123.65-7.90Q123.79-5.04 123.92-3.97L123.92-3.97L123.92-3.97Q124.06-2.90 124.06-2.69L124.06-2.69L124.06-2.69Q124.06-0.97 121.92 0.10L121.92 0.10L121.92 0.10Q119.78 1.17 117.65 1.17L117.65 1.17L117.65 1.17Q115.51 1.17 115.51 0.28L115.51 0.28L115.85-1.86L115.85-1.86Q116.82-7.87 116.82-17.53L116.82-17.53L116.82-17.53Q116.82-27.19 116.13-30.64L116.13-30.64L116.13-30.64Q116.13-31.46 117.58-31.46L117.58-31.46L117.58-31.46Q121.30-31.46 122.54-28.91L122.54-28.91L122.54-28.91Q122.61-28.64 122.79-28.64L122.79-28.64L122.79-28.64Q122.96-28.64 123.72-29.26L123.72-29.26L123.72-29.26Q125.99-31.12 129.10-31.12L129.10-31.12L129.10-31.12Q131.03-31.12 132.96-30.36L132.96-30.36L132.96-30.36Q136.90-28.77 136.90-23.74L136.90-23.74" fill="#000000" stroke="none" stroke-width="none" transform="translate(-87.6299991607666,20.50208851405553)" style="fill: rgb(165, 165, 165);"></path></g><g className="path" style="transform: matrix(1, 0, 0, 1, 0, 0); transform-origin: 59.065px 1.21709px; animation: 1.0989s linear -0.103611s infinite normal forwards running bounce-1751a5a4-bba9-4c61-85f0-850173bc693f;"><path d="M138.97-26.91L138.97-26.91L139.17-29.67L139.17-29.67Q139.24-30.29 140.14-30.29L140.14-30.29L142.55-30.29L142.28-35.81L142.28-36.09L142.28-36.09Q142.28-37.67 144.69-39.12L144.69-39.12L144.69-39.12Q147.11-40.57 149.11-40.57L149.11-40.57L149.11-40.57Q149.73-40.57 149.73-40.02L149.73-40.02L149.73-39.95L149.73-39.95Q149.45-38.09 149.18-30.36L149.18-30.36L149.18-30.36Q152.21-30.36 153.04-30.50L153.04-30.50L153.04-30.50Q153.87-30.64 153.94-30.64L153.94-30.64L153.94-30.64Q154.42-30.64 154.42-29.81L154.42-29.81L154.42-29.81Q154.42-28.98 153.66-27.70L153.66-27.70L153.66-27.70Q152.90-26.43 152.01-26.36L152.01-26.36L149.11-26.36L149.11-26.36Q149.04-24.01 149.04-18.46L149.04-18.46L149.04-18.46Q149.04-12.90 149.14-9.32L149.14-9.32L149.14-9.32Q149.25-5.73 149.39-3.90L149.39-3.90L149.39-3.90Q149.52-2.07 149.70-0.97L149.70-0.97L149.70-0.97Q149.87 0.14 149.97 0.62L149.97 0.62L149.97 0.62Q150.08 1.10 150.08 1.24L150.08 1.24L150.08 1.24Q150.08 1.93 149.18 2.00L149.18 2.00L149.18 2.00Q146.49 2.00 143.83 1.24L143.83 1.24L143.83 1.24Q141.17 0.48 141.17-1.38L141.17-1.38L141.17-1.38Q142.62-12.97 142.62-26.29L142.62-26.29L142.62-26.29Q140.76-26.29 139.79-26.15L139.79-26.15L139.73-26.15L139.73-26.15Q139.10-26.15 138.97-26.91" fill="#000000" stroke="none" stroke-width="none" transform="translate(-87.6299991607666,20.50208851405553)" style="fill: rgb(0, 0, 0);"></path></g><g className="path" style="transform: matrix(1, 0, 0, 1, 0, 0); transform-origin: 77.625px 5.59709px; animation: 1.0989s linear 0s infinite normal forwards running bounce-1751a5a4-bba9-4c61-85f0-850173bc693f;"><path d="M176.43-9.45L176.43-9.45L176.43-9.45Q176.43-6.49 175.29-4.28L175.29-4.28L175.29-4.28Q174.16-2.07 172.71-1.04L172.71-1.04L172.71-1.04Q171.26 0 169.26 0.62L169.26 0.62L169.26 0.62Q166.63 1.45 164.50 1.45L164.50 1.45L164.50 1.45Q160.01 1.45 157.04-0.31L157.04-0.31L157.04-0.31Q154.08-2.07 154.08-5.93L154.08-5.93L154.08-5.93Q154.08-8.21 155.32-9.66L155.32-9.66L155.32-9.66Q157.25-11.80 159.94-11.80L159.94-11.80L159.94-11.80Q160.77-11.80 160.77-11.04L160.77-11.04L160.77-11.04Q160.77-10.97 160.46-9.97L160.46-9.97L160.46-9.97Q160.15-8.97 160.15-7.45L160.15-7.45L160.15-7.45Q160.15-5.93 161.36-4.76L161.36-4.76L161.36-4.76Q162.56-3.59 164.29-3.59L164.29-3.59L164.29-3.59Q166.01-3.59 167.05-4.17L167.05-4.17L167.05-4.17Q168.08-4.76 168.50-5.66L168.50-5.66L168.50-5.66Q169.12-6.90 169.12-8.00L169.12-8.00L169.12-8.00Q169.12-10.01 167.12-11.45L167.12-11.45L167.12-11.45Q165.12-12.90 162.70-13.73L162.70-13.73L162.70-13.73Q160.29-14.56 158.29-16.49L158.29-16.49L158.29-16.49Q156.28-18.42 156.28-21.32L156.28-21.32L156.28-21.32Q156.28-26.29 159.42-28.77L159.42-28.77L159.42-28.77Q162.56-31.26 167.95-31.26L167.95-31.26L167.95-31.26Q170.29-31.26 172.88-30.60L172.88-30.60L172.88-30.60Q175.47-29.95 175.47-28.39L175.47-28.39L175.47-28.39Q175.47-26.84 174.95-25.53L174.95-25.53L174.95-25.53Q174.43-24.22 173.67-24.22L173.67-24.22L173.67-24.22Q173.26-24.22 173.12-24.53L173.12-24.53L173.12-24.53Q172.98-24.84 172.64-25.25L172.64-25.25L172.64-25.25Q172.29-25.67 170.98-26.32L170.98-26.32L170.98-26.32Q169.67-26.98 168.74-26.98L168.74-26.98L168.74-26.98Q167.81-26.98 167.50-26.94L167.50-26.94L167.50-26.94Q167.19-26.91 166.43-26.74L166.43-26.74L166.43-26.74Q165.67-26.57 165.05-26.22L165.05-26.22L165.05-26.22Q163.46-25.32 163.46-23.60L163.46-23.60L163.46-23.60Q163.46-22.49 163.94-21.98L163.94-21.98L163.94-21.98Q164.43-21.46 164.70-21.18L164.70-21.18L164.70-21.18Q164.98-20.91 165.67-20.53L165.67-20.53L165.67-20.53Q166.36-20.15 166.63-20.01L166.63-20.01L166.63-20.01Q166.91-19.87 167.88-19.42L167.88-19.42L167.88-19.42Q168.84-18.98 169.12-18.84L169.12-18.84L169.12-18.84Q176.43-15.39 176.43-9.45" fill="#000000" stroke="none" stroke-width="none" transform="translate(-87.6299991607666,20.50208851405553)" style="fill: rgb(165, 165, 165);"></path></g></g>
</g>
</g>
<style id="bounce-1751a5a4-bba9-4c61-85f0-850173bc693f" data-anikit="">@keyframes bounce-1751a5a4-bba9-4c61-85f0-850173bc693f
{
  0% {
    animation-timing-function: cubic-bezier(0.1361,0.2514,0.2175,0.8786);
    transform: translate(0,0px) scaleY(1);
  }
  37% {
    animation-timing-function: cubic-bezier(0.7674,0.1844,0.8382,0.7157);
    transform: translate(0,-39.96px) scaleY(1);
  }
  72% {
    animation-timing-function: cubic-bezier(0.1118,0.2149,0.2172,0.941);
    transform: translate(0,0px) scaleY(1);
  }
  87% {
    animation-timing-function: cubic-bezier(0.7494,0.2259,0.8209,0.6963);
    transform: translate(0,19.900000000000002px) scaleY(0.602);
  }
  100% {
    transform: translate(0,0px) scaleY(1);
  }
}</style></svg>