<?xml version="1.0" encoding="iso-8859-1"?>
<!-- Generator: Adobe Illustrator 19.0.0, SVG Export Plug-In . SVG Version: 6.00 Build 0)  -->
<svg version="1.1" id="Layer_1" xmlns="http://www.w3.org/2000/svg" xmlns:xlink="http://www.w3.org/1999/xlink" x="0px" y="0px"
	 viewBox="0 0 512 512" style="enable-background:new 0 0 512 512;" xml:space="preserve">
<g>
	<g>
		<g>
			<path d="M327.011,408.69c-6.279,2.822-12.795,5.273-19.368,7.289c-5.608,1.72-8.76,7.659-7.041,13.268
				c1.401,4.571,5.606,7.51,10.152,7.51c1.031,0,2.08-0.151,3.117-0.469c7.413-2.273,14.763-5.039,21.847-8.222
				c5.35-2.405,7.739-8.691,5.334-14.041C338.648,408.675,332.36,406.287,327.011,408.69z"/>
			<path d="M221.514,92.623c0.734,0,1.481-0.076,2.227-0.236c6.717-1.434,13.604-2.459,20.468-3.05
				c5.844-0.503,10.174-5.648,9.671-11.493c-0.503-5.844-5.642-10.171-11.492-9.672c-7.739,0.666-15.505,1.824-23.08,3.44
				c-5.737,1.224-9.394,6.867-8.171,12.604C212.202,89.206,216.609,92.623,221.514,92.623z"/>
			<path d="M293.272,92.31c6.735,1.421,13.448,3.282,19.952,5.531c1.15,0.398,2.321,0.586,3.473,0.586
				c4.401,0,8.518-2.759,10.037-7.152c1.917-5.544-1.023-11.592-6.567-13.509c-7.338-2.539-14.911-4.637-22.51-6.241
				c-5.744-1.212-11.374,2.461-12.585,8.2C283.861,85.463,287.532,91.098,293.272,92.31z"/>
			<path d="M154.054,122.827c2.171,0,4.363-0.664,6.252-2.041c5.562-4.059,11.432-7.811,17.441-11.149
				c5.128-2.849,6.976-9.315,4.127-14.443c-2.849-5.128-9.313-6.977-14.443-4.127c-6.771,3.761-13.382,7.987-19.648,12.558
				c-4.738,3.457-5.777,10.102-2.32,14.841C147.544,121.316,150.776,122.827,154.054,122.827z"/>
			<path d="M259.081,423.283c-0.015,0-0.029,0-0.044,0h-0.347c-6.905,0-13.859-0.427-20.67-1.269
				c-5.824-0.724-11.125,3.416-11.844,9.237c-0.72,5.821,3.416,11.125,9.237,11.844c7.673,0.948,15.504,1.43,23.276,1.43h0.432
				c5.865-0.023,10.602-4.798,10.579-10.664C269.677,428.01,264.927,423.283,259.081,423.283z"/>
			<path d="M190.703,408.84c-6.28-2.805-12.452-6.036-18.346-9.604c-5.019-3.037-11.548-1.432-14.586,3.587
				c-3.037,5.019-1.431,11.549,3.587,14.586c6.644,4.021,13.603,7.663,20.682,10.825c1.407,0.629,2.878,0.926,4.326,0.926
				c4.063,0,7.94-2.344,9.703-6.292C198.461,417.514,196.059,411.232,190.703,408.84z"/>
			<path d="M431.276,300.558c-5.581-1.806-11.57,1.254-13.376,6.835c-2.117,6.544-4.67,13.025-7.59,19.264
				c-2.486,5.313-0.194,11.635,5.118,14.122c1.456,0.681,2.987,1.004,4.494,1.004c3.996,0,7.823-2.264,9.627-6.122
				c3.293-7.035,6.173-14.345,8.562-21.726C439.917,308.353,436.857,302.365,431.276,300.558z"/>
			<path d="M121.557,351.703c-3.365-4.805-9.987-5.973-14.792-2.61c-4.805,3.364-5.973,9.987-2.61,14.792
				c4.444,6.346,9.33,12.484,14.523,18.244c2.098,2.326,4.988,3.508,7.891,3.508c2.535,0,5.079-0.903,7.11-2.734
				c4.357-3.928,4.703-10.643,0.774-15C129.843,362.79,125.503,357.338,121.557,351.703z"/>
			<path d="M398.16,366.835c-4.363-3.917-11.079-3.558-14.998,0.807c-4.6,5.123-9.565,10.014-14.759,14.536
				c-4.424,3.852-4.887,10.562-1.035,14.985c2.1,2.412,5.049,3.646,8.014,3.646c2.474,0,4.959-0.859,6.971-2.611
				c5.847-5.092,11.437-10.598,16.615-16.364C402.886,377.468,402.524,370.754,398.16,366.835z"/>
			<path d="M510.576,230.439L423.52,79.653c-1.458-2.527-3.893-4.342-6.731-5.021c-2.837-0.677-5.83-0.158-8.274,1.437l-2.733,1.784
				c-41.308-34.231-92.767-52.865-147.093-52.865c-61.706,0-119.718,24.029-163.35,67.661
				c-10.085,10.085-19.096,20.953-27.029,32.446l-9.897-2.632c-5.661-1.506-11.473,1.858-12.989,7.516L0.362,298.16
				c-0.731,2.724-0.346,5.627,1.066,8.069c1.413,2.441,3.738,4.221,6.463,4.945l28.354,7.539
				c10.562,37.679,30.668,72.209,59.094,100.637c43.633,43.632,101.645,67.661,163.35,67.661s119.717-24.029,163.35-67.661
				c43.618-43.619,67.645-101.609,67.66-163.292l17.485-11.413C511.907,241.561,513.397,235.323,510.576,230.439z M258.69,46.232
				c48.273,0,92.78,16.402,128.268,43.911l-35.008,22.855c-4.722,3.083-6.212,9.32-3.391,14.205l2.962,5.131l-18.232,10.527
				c-6.495,3.75-13.747,5.028-22.776,4.005l-82.043-21.795c-13.745-3.685-27.991,4.162-33.132,18.249
				c-0.177,0.489-0.321,0.99-0.425,1.5c-1.337,6.491-1.118,12.946,0.39,18.957l-0.998-0.268
				c-10.422-2.793-21.547-3.287-32.173-1.432c-7.603,1.33-15.563,0.974-23.02-1.024l-20.336-5.45l1.52-5.674
				c0.731-2.724,0.346-5.627-1.066-8.069c-1.413-2.441-3.738-4.221-6.463-4.945l-22.371-5.949
				C128.661,79.586,189.844,46.232,258.69,46.232z M392.08,226.016c-4.191-7.257-10.937-12.445-18.995-14.603l-143.762-38.664
				c-9.561-2.562-15.48-12.477-13.764-22.807c1.28-2.835,4.011-5.263,7.432-4.348c0,0,83.724,22.208,84.198,22.267
				c13.985,1.748,25.994-0.413,36.717-6.605l18.232-10.527l59.987,103.901l-24.503,11.805c-2.081-2.453-4.543-4.605-7.336-6.34
				c2.215-3.021,3.916-6.494,4.943-10.328C397.39,241.709,396.27,233.274,392.08,226.016z M253.739,287.126l94.818,25.407
				c3.926,2.177,6.031,6.843,4.81,11.402c-1.416,5.284-6.866,8.429-12.151,7.015l-104.159-27.593
				c-5.666-1.519-11.49,1.844-13.009,7.51c-1.519,5.666,1.844,11.49,7.51,13.009l89.505,23.983
				c3.927,2.177,6.034,6.843,4.813,11.403c-0.686,2.56-2.327,4.699-4.623,6.024c-2.294,1.324-4.966,1.677-7.528,0.991
				L150.647,322.58c-7.03-1.884-13.495-5.122-19.215-9.623l-1.272-1c-7.992-6.29-17.027-10.815-26.851-13.446l-21.299-5.707
				l31.265-116.681l20.335,5.449c10.42,2.791,21.546,3.287,32.173,1.432c7.605-1.328,15.565-0.974,23.02,1.024l178.785,47.906
				c5.366,1.438,8.562,6.973,7.103,12.411c-1.429,5.325-6.778,8.363-12.181,6.928l-0.023-0.006
				c-0.831-0.223-84.612-22.356-84.612-22.356c-5.669-1.519-11.489,1.845-13.008,7.51c-1.519,5.666,1.844,11.49,7.51,13.009
				l104.01,27.553c5.367,1.438,8.563,6.973,7.125,12.338c-1.414,5.283-6.87,8.432-12.15,7.014l-112.126-29.728
				c-5.672-1.522-11.49,1.845-13.008,7.51C244.71,279.783,248.073,285.607,253.739,287.126z M23.634,293.379L63.2,145.717
				l33.819,8.992L57.454,302.371L23.634,293.379z M258.69,465.769c-91.43,0-169.382-58.798-198.037-140.566l1.588,0.423
				c0.914,0.243,1.832,0.359,2.736,0.359c4.69,0,8.981-3.131,10.253-7.875l1.283-4.788l21.299,5.707
				c7.029,1.883,13.493,5.12,19.214,9.623l1.272,1c7.991,6.289,17.026,10.813,26.851,13.446l163.079,43.697
				c2.684,0.719,5.409,1.076,8.117,1.076c5.4,0,10.729-1.416,15.53-4.189c7.209-4.161,12.366-10.883,14.52-18.923
				c1.118-4.174,1.337-8.38,0.774-12.411c12.396-1.371,23.3-10.161,26.716-22.915c1.037-3.868,1.3-7.765,0.886-11.524
				c13.426-0.371,25.612-9.471,29.261-23.091c0.752-2.805,1.075-5.623,1.047-8.395l27.698-13.346l2.836,4.911
				c3.83,6.917,13.263,4.72,15.005,3.584l17.333-11.315C460.595,379.297,369.563,465.769,258.69,465.769z M448.401,257.65
				l-76.419-132.362l38.751-25.298l76.419,132.362L448.401,257.65z"/>
		</g>
	</g>
</g>
<g>
</g>
<g>
</g>
<g>
</g>
<g>
</g>
<g>
</g>
<g>
</g>
<g>
</g>
<g>
</g>
<g>
</g>
<g>
</g>
<g>
</g>
<g>
</g>
<g>
</g>
<g>
</g>
<g>
</g>
</svg>
